<?xml version="1.0" encoding="utf-8"?>
<!-- Generator: Adobe Illustrator 25.1.0, SVG Export Plug-In . SVG Version: 6.00 Build 0)  -->
<svg version="1.1" xmlns="http://www.w3.org/2000/svg" xmlns:xlink="http://www.w3.org/1999/xlink" x="0px" y="0px"
	 viewBox="0 0 327.99 94.33" style="enable-background:new 0 0 327.99 94.33;" xml:space="preserve">
<g id="black">
	<g id="identity_44_">
		<g>
			<g id="emblem_4_">
				<polygon points="34.33,53.52 39.99,53.52 47.81,32.18 42.14,32.18 				"/>
				<path d="M56.47,24.24l-1.84,5c5.65,3.24,9.46,9.33,9.46,16.31c0,10.37-8.41,18.79-18.79,18.79c-10.38,0-18.79-8.42-18.79-18.79
					c0-10.37,8.41-18.79,18.79-18.79c1.51,0,2.97,0.18,4.38,0.52l1.83-4.98c-1.98-0.53-4.06-0.81-6.21-0.81
					c-13.28,0-24.05,10.77-24.05,24.05c0,13.29,10.77,24.06,24.05,24.06c13.29,0,24.06-10.77,24.06-24.06
					C69.36,36.3,64.13,28.26,56.47,24.24z"/>
				<polygon points="45.77,53.52 51.43,53.52 56.31,40.16 50.65,40.16 				"/>
			</g>
			<g id="text_4_">
				<path d="M90.54,53.56v-7.55h-6.28v7.55h-3.97V35.41h3.97v6.97h6.28v-6.97h3.97v18.16H90.54z"/>
				<path d="M103.45,53.86c-0.38,0-0.81-0.05-1.14-0.11l-1.02,2.72l-2.14-0.7l0.97-2.64c-1.78-0.99-2.75-3.01-2.75-5.94
					c0-4.46,2.85-7.28,6.69-7.28c0.26,0,0.59,0,0.92,0.05l0.92-2.51l2.16,0.67l-0.89,2.42c1.65,0.91,2.95,2.69,2.95,6.05
					C110.12,50.96,107.24,53.86,103.45,53.86z M103.15,43.26c-1.09,0.27-2.11,1.19-2.11,3.47c0,0.99,0.15,1.99,0.53,2.55l2.21-6.07
					C103.59,43.18,103.35,43.21,103.15,43.26z M105.8,44.18l-2.31,6.3c0.23,0.03,0.48,0.05,0.73,0.03c1.22-0.19,2.26-1.3,2.26-3.64
					C106.48,45.68,106.25,44.88,105.8,44.18z"/>
				<path d="M117.75,60.23c-3.46,0-5.49-1.31-5.49-3.98c0-1.26,0.87-2.57,1.83-3.12c-0.73-0.37-1.22-1.13-1.22-2.07
					c0-1.08,0.66-2.1,1.55-2.47c-1.14-0.65-1.91-1.89-1.91-3.61c0-2.74,1.91-5.11,5.75-5.11c0.86,0,1.5,0.13,2.21,0.32h4.3v3.23
					h-1.45c0.23,0.27,0.35,0.7,0.35,1.18c0,2.91-1.83,4.79-5.47,4.79c-0.28,0-0.48-0.03-0.76-0.08c-0.31,0.16-0.46,0.46-0.46,0.67
					c0,0.57,0.38,0.65,1.81,0.7l1.71,0.08c2.72,0.11,4.35,1.29,4.35,3.98C124.84,57.65,122.1,60.23,117.75,60.23z M119.42,53.88
					l-2-0.05c-0.15-0.03-0.35,0-0.49-0.03c-0.56,0.48-0.89,1.08-0.89,1.67c0,0.99,0.84,1.66,2.27,1.66c1.8,0,2.72-0.8,2.72-1.85
					C121.03,54.53,120.6,53.94,119.42,53.88z M118.1,42.83c-1.19,0-1.88,0.79-1.88,1.88c0,1.19,0.63,1.91,1.91,1.91
					c1.17,0,1.88-0.7,1.88-1.86C120.01,43.62,119.38,42.83,118.1,42.83z"/>
				<path d="M129.98,53.86c-0.99,0-1.99-0.13-2.8-0.37l0.21-3.33c0.76,0.35,1.7,0.53,2.64,0.53c0.97,0,1.55-0.4,1.55-1.05
					c0-1.96-4.65-0.86-4.65-5.3c0-2.45,1.73-4.46,5.59-4.46c0.68,0,1.5,0.1,2.21,0.24l-0.12,3.2c-0.64-0.24-1.45-0.34-2.19-0.34
					c-0.99,0-1.45,0.4-1.45,1.02c0,1.78,4.73,1.03,4.73,5.29C135.7,52.11,133.41,53.86,129.98,53.86z"/>
				<path d="M145.95,53.56l-3.43-6.43v6.43h-3.87V33.93h3.87v11.64l3.2-5.37h4.76l-4.17,6.13l4.48,7.23H145.95z"/>
				<path d="M157.85,53.86c-3.66,0-6.08-1.91-6.08-6.67c0-4.36,2.82-7.28,6.69-7.28c3.84,0,6.05,2.26,6.05,6.69
					C164.51,50.93,161.67,53.86,157.85,53.86z M158.21,43.4c-1.22,0-2.42,1-2.42,3.34c0,2.45,0.74,3.58,2.34,3.58
					c1.4,0,2.36-1.24,2.36-3.47C160.49,44.56,159.81,43.4,158.21,43.4z"/>
				<path d="M167.39,53.56V33.93h3.86v19.63H167.39z"/>
				<path d="M185.62,47.91h-7.53c0.03,1.75,1.04,2.77,3.13,2.77c1.22,0,2.49-0.26,3.71-0.83l0.38,3.09
					c-1.45,0.62-3.18,0.92-4.73,0.92c-4.12,0-6.41-2.12-6.41-6.83c0-4.11,2.16-7.15,6.08-7.15c3.82,0,5.49,2.72,5.49,6.21
					C185.75,46.65,185.7,47.24,185.62,47.91z M180.15,42.86c-1.12,0-1.93,0.94-2.06,2.34h3.84
					C181.99,43.67,181.28,42.86,180.15,42.86z"/>
				<path d="M196.3,53.56v-8.5c0-1.08-0.28-1.72-1.17-1.72c-1.37,0-2.52,1.8-2.52,3.73v6.48h-3.86V40.2h3.61
					c0,0.51-0.02,1.45-0.15,2.1l0.03,0.02c0.79-1.4,2.19-2.42,4.19-2.42c2.82,0,3.74,1.93,3.74,4.25v9.41H196.3z"/>
				<path d="M211.94,38.64c-1.29,0-2.37-1.07-2.37-2.42c0-1.31,1.07-2.41,2.37-2.41c1.32,0,2.39,1.07,2.39,2.41
					C214.33,37.56,213.26,38.64,211.94,38.64z M210.01,53.56V40.2h3.87v13.36H210.01z"/>
				<path d="M230.81,53.91c-0.45,0-0.84-0.03-1.25-0.1l-0.84,2.61l-2.85-0.94l0.82-2.51c-2.57-1.43-3.77-4.44-3.77-8.26
					c0-5.91,3.8-9.65,8.52-9.65c0.33,0,0.66,0.03,1.02,0.08l0.79-2.48l2.88,0.92l-0.76,2.33c2.39,1.24,3.99,3.85,3.99,8.31
					C239.36,50.2,235.64,53.91,230.81,53.91z M230.08,38.96c-1.76,0.46-3.13,2.26-3.13,5.41c0,1.96,0.38,3.44,1.12,4.27l3.25-9.84
					C230.91,38.8,230.51,38.83,230.08,38.96z M234.04,40.04l-3.33,10.11c0.3,0.05,0.61,0.05,0.94,0.02c1.86-0.27,3.69-1.94,3.69-5.7
					C235.34,42.54,234.9,40.9,234.04,40.04z"/>
				<path d="M244.62,53.86c-0.99,0-1.98-0.13-2.8-0.37l0.2-3.33c0.76,0.35,1.7,0.53,2.64,0.53c0.97,0,1.55-0.4,1.55-1.05
					c0-1.96-4.65-0.86-4.65-5.3c0-2.45,1.73-4.46,5.6-4.46c0.68,0,1.5,0.1,2.21,0.24l-0.13,3.2c-0.63-0.24-1.45-0.34-2.19-0.34
					c-0.99,0-1.45,0.4-1.45,1.02c0,1.78,4.73,1.03,4.73,5.29C250.34,52.11,248.06,53.86,244.62,53.86z"/>
				<path d="M257.77,53.86c-2.92,0-3.87-1.02-3.87-4.3v-6.21H252V40.2h1.91v-3.95l3.89-1.1v5.05h2.72v3.15h-2.72v5.27
					c0,1.37,0.33,1.83,1.3,1.83c0.45,0,0.89-0.08,1.32-0.19l0.23,3.2C259.78,53.7,258.68,53.86,257.77,53.86z"/>
				<path d="M271.15,37.24c-0.46-0.16-0.97-0.24-1.4-0.24c-1.17,0-1.71,0.59-1.71,2.02v1.18h2.59v3.15h-2.59v10.21h-3.86V43.35
					h-1.93V40.2h1.93v-1.16c0-3.55,1.5-5.35,5.19-5.35c0.66,0,1.38,0.06,2.03,0.21L271.15,37.24z"/>
				<path d="M278.16,53.86c-3.66,0-6.08-1.91-6.08-6.67c0-4.36,2.82-7.28,6.69-7.28c3.84,0,6.05,2.26,6.05,6.69
					C284.83,50.93,281.98,53.86,278.16,53.86z M278.52,43.4c-1.22,0-2.41,1-2.41,3.34c0,2.45,0.74,3.58,2.34,3.58
					c1.4,0,2.37-1.24,2.37-3.47C280.81,44.56,280.12,43.4,278.52,43.4z"/>
				<path d="M287.7,53.56V33.93h3.86v19.63H287.7z"/>
				<path d="M302.85,53.56c0-0.57,0.03-1.24,0.14-1.91h-0.05c-0.69,1.28-1.96,2.23-3.84,2.23c-3.05,0-4.6-2.45-4.6-6.26
					c0-4.38,2.47-7.69,6.79-7.69c0.43,0,0.86,0.03,1.27,0.08v-6.08h3.87v19.63H302.85z M302.55,43.35
					c-0.43-0.11-0.87-0.16-1.32-0.16c-1.5,0-2.65,1.02-2.65,4c0,2.24,0.56,3.29,1.76,3.29c1.3,0,2.21-1.62,2.21-3.85V43.35z"/>
			</g>
		</g>
	</g>
</g>
<g id="Layer_1">
</g>
</svg>
